# xmcd CD database file
#
# Track frame offsets:
#	150
#	17526
#	34634
#	52790
#	67880
#	82877
#	106525
#	128107
#	141013
#	155751
#	172781
#	191113
#	202473
#
# Disc length: 2820 seconds
#
# Revision: 0
# Processed by: cddbd v1.4PL0 Copyright (c) Steve Scherf et al.
# Submitted via: CDex 1.50beta10
#
DISCID=a00b020d
DTITLE=Beverly Mayes - Keep The Good Earth Whole
DYEAR=1900
DGENRE=Country
TTITLE0=Dark Red Clay
TTITLE1=Ain't It A Bitch
TTITLE2=Thinkin' About You, Babe
TTITLE3=There's Seldom That Kind Of Satisfaction
TTITLE4=Keep The Good Earth Whole
TTITLE5=Memphis After Midnight
TTITLE6=Hard Times
TTITLE7=Listenin' Everybody's Blues
TTITLE8=I'm Gonna Change
TTITLE9=Get Lucky
TTITLE10=Worn Out Woman
TTITLE11=You Ain't Easy
TTITLE12=Leavin', Lord Yes, I'm Gone
EXTD=
EXTT0=
EXTT1=
EXTT2=
EXTT3=
EXTT4=
EXTT5=
EXTT6=
EXTT7=
EXTT8=
EXTT9=
EXTT10=
EXTT11=
EXTT12=
PLAYORDER=
